<?xml version="1.0" encoding="UTF-8"?>
<svg id="Horizontal_-_Color" data-name="Horizontal - Color" xmlns="http://www.w3.org/2000/svg" viewBox="0 0 1500 1500">
  <defs>
    <style>
      .cls-1 {
        fill: #0a0a0a;
      }

      .cls-1, .cls-2 {
        stroke-width: 0px;
      }

      .cls-2 {
        fill: #009fb7;
      }
    </style>
  </defs>
  <g>
    <path class="cls-2" d="M246.63,1176.32c12.26-.88,20.21-2.71,23.84-5.49,3.63-2.78,5.45-9.98,5.45-21.59v-134.09c0-11.09-1.82-18.23-5.45-21.42-3.63-3.19-11.58-5.08-23.84-5.67v-5.59h89.2v5.59c-12.27.59-20.22,2.48-23.84,5.67-3.63,3.19-5.45,10.33-5.45,21.42v134.09c0,11.61,1.81,18.81,5.45,21.59,3.63,2.78,11.58,4.61,23.84,5.49v5.59h-89.2v-5.59Z"/>
    <path class="cls-2" d="M347.6,1177.79c6.97-.88,11.85-2.62,14.65-5.23,2.8-2.6,4.19-8.41,4.19-17.44v-74.77c0-6.23-.59-10.61-1.77-13.14-1.87-3.7-5.69-5.55-11.48-5.55-.88,0-1.79.05-2.72.15-.93.1-2.09.25-3.46.44v-5.15c4.02-1.18,13.54-4.22,28.55-9.13l13.84-4.56c.69,0,1.1.25,1.25.74.15.49.22,1.18.22,2.06v21.64c9.01-8.44,16.06-14.23,21.16-17.37,7.64-4.81,15.57-7.21,23.8-7.21,6.66,0,12.73,1.91,18.22,5.74,10.58,7.46,15.87,20.75,15.87,39.89v68.74c0,7.06,1.41,12.17,4.23,15.31,2.82,3.14,7.55,4.76,14.17,4.86v4.12h-62.85v-4.12c7.16-.98,12.17-2.97,15.01-5.96,2.84-2.99,4.27-9.49,4.27-19.5v-62.85c0-8.44-1.56-15.43-4.69-20.97-3.12-5.54-8.88-8.32-17.27-8.32-5.76,0-11.61,1.96-17.56,5.89-3.32,2.26-7.61,5.99-12.88,11.19v82.43c0,7.07,1.57,11.8,4.71,14.2,3.14,2.41,8.1,3.71,14.87,3.9v4.12h-64.32v-4.12Z"/>
    <path class="cls-1" d="M577.95,982.48v5.15c-7.54.1-12.68.6-15.42,1.5-4.81,1.6-7.21,4.83-7.21,9.72,0,2.49.86,5.98,2.58,10.47,1.72,4.48,4.91,11.93,9.59,22.33l47.19,104.94,42.83-113.6c1.89-5.02,3.33-9.28,4.31-12.77.98-3.49,1.47-6.33,1.47-8.53,0-5.88-2.5-9.87-7.5-11.97-2.94-1.2-7.79-1.89-14.55-2.09v-5.15h61.66v5.15c-6.38.88-11.09,2.6-14.13,5.15-4.61,3.83-9.18,11.53-13.69,23.11l-66.76,169.56h-4.54l-74.5-165.69c-6.28-14.05-11.31-22.8-15.09-26.24-3.78-3.44-9.3-5.4-16.56-5.9v-5.15h80.3Z"/>
    <path class="cls-1" d="M698.5,1177.79c10.5-.98,17.12-2.77,19.87-5.37,2.75-2.6,4.12-9.64,4.12-21.12v-70.21c0-6.38-.44-10.79-1.32-13.25-1.47-4.02-4.56-6.03-9.27-6.03-1.08,0-2.13.1-3.16.29-1.03.2-4,.98-8.9,2.35v-4.56l6.33-2.06c17.17-5.59,29.14-9.81,35.91-12.66,2.75-1.18,4.51-1.77,5.3-1.77.2.69.29,1.42.29,2.21v105.68c0,11.19,1.35,18.2,4.05,21.05,2.7,2.85,8.81,4.66,18.32,5.45v4.12h-71.53v-4.12ZM721.9,980.98c2.94-3.03,6.57-4.54,10.89-4.54s7.82,1.49,10.82,4.47c2.99,2.98,4.49,6.62,4.49,10.91s-1.5,7.79-4.49,10.77c-2.99,2.98-6.6,4.47-10.82,4.47s-7.95-1.49-10.89-4.47c-2.94-2.98-4.42-6.57-4.42-10.77s1.47-7.81,4.42-10.84Z"/>
    <path class="cls-1" d="M792.11,1135.55h4.86c2.25,11.19,5.29,19.77,9.1,25.76,6.85,10.99,16.89,16.49,30.1,16.49,7.34,0,13.14-2.04,17.4-6.11,4.26-4.07,6.39-9.35,6.39-15.82,0-4.12-1.23-8.1-3.68-11.92-2.45-3.83-6.77-7.55-12.95-11.19l-16.48-9.42c-12.07-6.48-20.95-13-26.64-19.58-5.69-6.57-8.54-14.33-8.54-23.26,0-10.99,3.92-20.02,11.77-27.08,7.85-7.07,17.71-10.6,29.58-10.6,5.2,0,10.92.98,17.15,2.94,6.23,1.96,9.74,2.94,10.52,2.94,1.77,0,3.04-.24,3.83-.74.78-.49,1.47-1.27,2.06-2.35h3.53l1.03,41.07h-4.56c-1.96-9.52-4.61-16.93-7.95-22.23-6.09-9.81-14.87-14.72-26.35-14.72-6.87,0-12.27,2.11-16.19,6.33-3.93,4.22-5.89,9.18-5.89,14.87,0,9.03,6.77,17.07,20.31,24.14l19.43,10.45c20.9,11.38,31.35,24.63,31.35,39.74,0,11.58-4.34,21.05-13.01,28.41-8.67,7.36-20.01,11.04-34.01,11.04-5.88,0-12.54-.98-19.98-2.94-7.44-1.96-11.85-2.94-13.22-2.94-1.18,0-2.21.42-3.09,1.25-.88.83-1.57,1.84-2.06,3.02h-3.83v-47.54Z"/>
    <path class="cls-1" d="M940.33,1045.62v94.2c0,6.67.93,12.02,2.8,16.04,3.63,7.46,10.3,11.19,20.02,11.19,6.67,0,13.2-2.21,19.58-6.62,3.63-2.45,7.31-5.84,11.04-10.16v-80.66c0-7.55-1.47-12.51-4.42-14.87-2.94-2.35-8.83-3.78-17.66-4.27v-4.86h47.54v103.62c0,6.67,1.2,11.26,3.61,13.76,2.4,2.5,7.48,3.61,15.23,3.31v4.12c-5.4,1.47-9.37,2.58-11.92,3.31-2.55.74-6.82,2.09-12.81,4.05-2.55.88-8.15,2.99-16.78,6.33-.49,0-.79-.22-.88-.66-.1-.44-.15-.96-.15-1.55v-23.7c-6.67,7.95-12.76,13.84-18.25,17.66-8.34,5.89-17.17,8.83-26.49,8.83-8.54,0-16.58-3.04-24.14-9.14-7.65-5.99-11.48-16.06-11.48-30.21v-76.49c0-7.79-1.67-13-5-15.63-2.16-1.65-6.77-2.82-13.84-3.51v-4.12h44.01Z"/>
    <path class="cls-1" d="M1076.77,1117.01c9.03-5.89,27.03-13.88,54.02-23.99v-12.51c0-10.01-.98-16.98-2.94-20.9-3.34-6.57-10.25-9.86-20.75-9.86-5,0-9.77,1.28-14.28,3.83-4.51,2.65-6.77,6.28-6.77,10.89,0,1.18.24,3.16.74,5.96.49,2.8.74,4.59.74,5.37,0,5.5-1.82,9.32-5.45,11.48-2.06,1.28-4.51,1.91-7.36,1.91-4.42,0-7.8-1.45-10.16-4.34-2.35-2.89-3.53-6.11-3.53-9.64,0-6.87,4.24-14.06,12.73-21.56,8.49-7.51,20.92-11.26,37.31-11.26,19.04,0,31.94,6.18,38.71,18.55,3.63,6.77,5.45,16.63,5.45,29.58v59.02c0,5.69.39,9.62,1.18,11.77,1.27,3.83,3.92,5.74,7.95,5.74,2.26,0,4.12-.34,5.59-1.03,1.47-.69,4.02-2.35,7.65-5v7.65c-3.14,3.83-6.53,6.97-10.16,9.42-5.5,3.73-11.09,5.59-16.78,5.59-6.67,0-11.51-2.16-14.5-6.48-2.99-4.32-4.64-9.47-4.93-15.45-7.46,6.48-13.84,11.29-19.13,14.42-8.93,5.3-17.42,7.95-25.46,7.95-8.44,0-15.75-2.97-21.93-8.91-6.18-5.94-9.27-13.47-9.27-22.59,0-14.23,7.11-26.1,21.34-35.62ZM1130.79,1100.37c-11.29,3.73-20.61,7.85-27.97,12.36-14.13,8.73-21.19,18.65-21.19,29.73,0,8.93,2.94,15.51,8.83,19.72,3.83,2.75,8.1,4.12,12.81,4.12,6.48,0,12.68-1.81,18.62-5.45,5.94-3.63,8.9-8.24,8.9-13.84v-46.66Z"/>
    <path class="cls-1" d="M1184.37,1177.79c9.13-.88,15.31-2.72,18.55-5.52,3.24-2.8,4.86-8.27,4.86-16.41v-143.8c0-6.48-.54-10.94-1.62-13.39-1.96-4.12-5.94-6.18-11.92-6.18-1.38,0-2.87.15-4.49.44s-3.66.74-6.11,1.32v-4.86c13.25-3.53,29.19-8.24,47.84-14.13.69,0,1.1.29,1.25.88.15.59.22,1.86.22,3.83v176.48c0,8.54,1.47,14.06,4.42,16.56,2.94,2.5,9.03,4.1,18.25,4.78v4.12h-71.24v-4.12Z"/>
  </g>
  <polygon class="cls-2" points="934.66 497.06 934.66 380.95 1211.8 284.48 1211.8 556.9 934.66 497.06"/>
  <polygon class="cls-2" points="458.64 257.15 458.64 767.11 276.71 767.11 276.71 341.52 458.64 257.15"/>
  <polygon class="cls-1" points="344.76 739.77 337.22 739.77 337.22 342.82 518.97 266.56 518.97 415.37 847.94 495.54 847.94 309.8 517.27 197.1 238.38 323.13 238.38 314.65 516.89 189 855.48 304.41 855.48 505.14 511.43 421.3 511.43 277.9 344.76 347.83 344.76 739.77"/>
  <polygon class="cls-1" points="284.84 766.75 277.29 766.75 277.29 580.18 511.43 520.04 511.43 487.07 1256.36 667.29 1256.42 675.67 518.97 496.65 518.97 525.89 284.84 586.03 284.84 766.75"/>
  <polygon class="cls-1" points="1144.87 741.66 511.43 741.66 511.43 522.97 518.97 522.97 518.97 734.11 1137.33 734.11 1137.33 398.04 1256.42 437.19 1256.42 445.67 1144.87 408.47 1144.87 741.66"/>
  <polygon class="cls-1" points="277.03 901.9 277.03 794.44 1207.05 798.2 1207.4 591.78 903.56 516.49 903.56 413.74 906.13 412.88 1182.89 320.3 1182.89 327.84 911.1 419.17 911.1 510.59 1214.94 586.12 1214.66 805.77 1210.84 805.75 284.57 802 284.57 901.9 277.03 901.9"/>
  <rect class="cls-1" x="238.07" y="850.06" width="1018.35" height="7.54"/>
  <rect class="cls-1" x="612.29" y="604.03" width="85.78" height="133.85"/>
  <rect class="cls-1" x="1040.24" y="413.62" width="31.41" height="30.67"/>
  <rect class="cls-1" x="1087.06" y="413.62" width="31.41" height="30.67"/>
  <rect class="cls-1" x="1040.24" y="458.2" width="31.41" height="30.67"/>
  <rect class="cls-1" x="1087.06" y="458.2" width="31.41" height="30.67"/>
  <polygon class="cls-1" points="829.11 469.38 737.87 446.07 737.97 438.13 821.55 459.67 821.45 390.49 828.99 390.48 829.11 469.38"/>
  <polygon class="cls-1" points="792.65 325.02 562.65 243.95 562.63 236.62 792.63 316.74 792.65 325.02"/>
  <rect class="cls-1" x="821.81" y="565.38" width="7.54" height="169.82"/>
  <rect class="cls-1" x="959.43" y="601.2" width="7.54" height="134.94"/>
  <rect class="cls-1" x="1018.82" y="614.4" width="7.54" height="122.69"/>
  <rect class="cls-1" x="1077.26" y="626.66" width="7.54" height="111.38"/>
</svg>